<svg aria-hidden="true" style="position:absolute;width:0;height:0;overflow:hidden" xmlns="http://www.w3.org/2000/svg">
  <defs>
    <symbol id="icon-band" viewBox="0 0 1920 32">
      <path d="M1920 0v32H0V0z"/>
    </symbol>
    <symbol id="icon-facebook" viewBox="0 0 32 32">
      <path d="M21.33 5.312h2.922V.224A35.256 35.256 0 0 0 20.215 0H19.996c-4.211 0-7.098 2.65-7.098 7.52V12H8.25v5.688h4.648V32h5.699V17.69h4.459l.709-5.688h-5.168V8.08c0-1.643.443-2.768 2.733-2.768z"/>
    </symbol>
    <symbol id="icon-instagram" viewBox="0 0 32 32">
      <path d="M31.968 9.408c-.074-1.701-.349-2.869-.742-3.882a7.867 7.867 0 0 0-1.849-2.836l-.001-.001-.001-.001A7.914 7.914 0 0 0 26.65.88l-.053-.019-.054-.018C25.524.449 24.362.176 22.661.101 20.949.019 20.405 0 16.059 0c-4.344 0-4.888.019-6.595.094-1.699.074-2.869.349-3.88.742a7.884 7.884 0 0 0-2.838 1.849l-.001.001-.001.001A7.909 7.909 0 0 0 .938 5.412l-.019.053-.018.054C.506 6.538.232 7.7.157 9.401c-.082 1.712-.101 2.256-.101 6.602 0 4.344.019 4.888.094 6.595.075 1.701.35 2.869.744 3.882a7.948 7.948 0 0 0 1.848 2.836l.001.001.001.001c.8.813 1.77 1.443 2.832 1.843 1.019.395 2.182.67 3.882.744 1.707.075 2.251.094 6.595.094 4.346 0 4.89-.019 6.595-.094 1.701-.074 2.869-.349 3.882-.742a8.288 8.288 0 0 0 4.644-4.573l.02-.055.019-.055c.394-1.019.669-2.182.744-3.882.075-1.707.093-2.251.093-6.595s-.006-4.888-.08-6.595zm-2.88 13.066c-.07 1.563-.333 2.406-.55 2.97a5.371 5.371 0 0 1-2.968 3.011l-.036.013-.036.012c-.56.219-1.411.482-2.968.55-1.688.075-2.194.094-6.464.094-4.269 0-4.782-.019-6.464-.094-1.563-.069-2.406-.331-2.97-.55a4.98 4.98 0 0 1-1.835-1.191l-.001-.001-.001-.001a4.973 4.973 0 0 1-1.172-1.769l-.012-.034-.011-.034c-.218-.563-.48-1.413-.549-2.97-.075-1.688-.094-2.195-.094-6.464 0-4.27.019-4.784.094-6.464.069-1.563.331-2.406.549-2.97a4.919 4.919 0 0 1 1.197-1.836l.001-.001.002-.002a4.967 4.967 0 0 1 1.772-1.17l.034-.012.034-.011c.56-.219 1.411-.48 2.968-.55 1.688-.074 2.195-.093 6.464-.093 4.275 0 4.782.019 6.464.093 1.563.069 2.406.331 2.97.55a4.935 4.935 0 0 1 1.836 1.193l.001.001c.531.52.938 1.144 1.195 1.84.218.56.48 1.411.549 2.968.075 1.688.094 2.194.094 6.464 0 4.269-.019 4.768-.094 6.458z"/>
      <path d="M16.059 7.782a8.223 8.223 0 0 0-8.219 8.221v.002a8.222 8.222 0 1 0 16.444 0 8.222 8.222 0 0 0-8.222-8.222h-.002zm0 13.552a5.333 5.333 0 0 1 .001-10.666h.002a5.334 5.334 0 1 1 0 10.668zM26.525 7.458a1.92 1.92 0 0 1-3.84 0 1.92 1.92 0 0 1 3.84 0z"/>
    </symbol>
    <symbol id="icon-linkedin" viewBox="0 0 32 32">
      <path d="M31.992 32H32V20.262c0-5.741-1.235-10.163-7.947-10.163-3.227 0-5.392 1.77-6.277 3.45h-.093v-2.914h-6.365v21.363h6.627V21.42c0-2.786.528-5.48 3.978-5.48 3.398 0 3.45 3.179 3.45 5.658V32h6.619zM.528 10.635h6.635V32H.528V10.635zM3.843 0A3.844 3.844 0 0 0 0 3.843c0 2.12 1.722 3.878 3.843 3.878 2.12 0 3.842-1.757 3.842-3.878S5.965.002 3.844 0z"/>
    </symbol>
    <symbol id="icon-logo" viewBox="0 0 39 32">
      <path d="m22.371 9.64-.749-.571a.569.569 0 0 0-.799.078l-.001.001-.001.001-10.36 11.897.16.177 2.566-2.366a.395.395 0 0 1 .147-.76h.007c.174 0 .321.114.371.272l.001.003 3.383-3.137a.291.291 0 0 1 .367 0h-.002l.171.126a.285.285 0 0 0 .382-.046l4.423-4.96a.471.471 0 0 0-.066-.713l-.001-.001-.001-.001z"/>
      <path d="M27.24 12.989a22.629 22.629 0 0 1-7.174 3.439l-.161.038-.162.037c-2.401.638-5.193 1.072-8.063 1.208l-.092.003c.055.406.155.805.297 1.189 1.554 1.406 13.257-.994 15.543-3.771.486-.577-.189-2.143-.189-2.143zm-13.897 5.868a.389.389 0 1 1 .389-.389v.006a.382.382 0 0 1-.383.383h-.006zM2.286 12.166l.091-.394 1.486.337c.123.226.198.475.223.731a2.447 2.447 0 0 1-.055.827l.003-.017a2.152 2.152 0 0 1-.495.999l.002-.002.002-.002a1.979 1.979 0 0 1-.852.564l-.014.004-.014.004a2.142 2.142 0 0 1-1.109.036l.014.003.014.003a1.993 1.993 0 0 1-.956-.505l.001.001.001.001a1.884 1.884 0 0 1-.537-.871l-.003-.013-.003-.013a2.16 2.16 0 0 1 .008-1.173l-.004.015-.004.015c.062-.28.171-.547.326-.789.147-.22.339-.399.563-.527l.008-.004.206.314a1.643 1.643 0 0 0-.751 1.089l-.002.01-.002.01a1.799 1.799 0 0 0 .023.923l-.003-.013-.003-.013c.077.278.229.529.44.726.217.21.488.354.783.417.286.08.589.08.874 0 .274-.09.52-.25.714-.463.2-.23.337-.507.4-.806a1.753 1.753 0 0 0-.078-1.114l.004.012.004.012-1.309-.331zM5.52 8.571l-1.331 1.777.571 1.023-.263.354-2.114-3.857.246-.337 4.303.926-.269.354-1.143-.24zm-.377-.091-2.286-.514L4 10.017 5.143 8.48zm0-3.594.343-.257 2.177 2.914L9.457 6.2l.217.291-2.131 1.594-2.4-3.2zm3.6-2.383.383-.171 1.509 3.303 2.04-.926.149.331-2.423 1.103-1.657-3.64zm7.531 1.314.086.36-2.754.646-.914-3.897 2.674-.623.08.354-2.286.531.326 1.383 2.011-.474.086.354-2.017.469.343 1.446 2.366-.549zm3.926.143-.954-1.257a2.626 2.626 0 0 1-.328 0h.008l-1.074.034.04 1.269h-.423l-.131-4L18.858 0a1.786 1.786 0 0 1 1.223.333l-.005-.004-.005-.004c.287.232.469.585.469.979v.015c.017.282-.057.563-.211.8-.162.222-.384.39-.644.48l-.009.003-.009.003 1 1.337-.463.017zm-.4-1.88a.909.909 0 0 0 .291-.756v.008-.019a.92.92 0 0 0-.334-.71l-.002-.001-.002-.001a1.363 1.363 0 0 0-.907-.234h.011l-1.086.04.069 2 1.063-.034a1.356 1.356 0 0 0 .903-.296l-.003.002-.003.002zm3.423.817-.206 1.366L22.6 4.2l.211-1.343L21.628 0l.446.069 1.011 2.434L24.799.486l.4.086-1.977 2.326zm5.651-.24.497.646-.217.171-.497-.663-.314.749-.24-.103.32-.749-.823.109v-.274l.811-.091-.503-.646.223-.171.44.651.309-.754.246.103-.291.766.823-.114v.28l-.783.091zm1.909 4.606a1.535 1.535 0 0 1-.244-.677l-.001-.007-.001-.007.337-.149c.026.226.099.445.217.64.128.219.294.413.491.571.197.189.452.318.736.359l.007.001a.62.62 0 0 0 .535-.22l.001-.001.001-.001a.51.51 0 0 0 .133-.343v-.002l-.002-.045v.002a1.048 1.048 0 0 0-.143-.404l.003.005.003.005a5.896 5.896 0 0 0-.369-.537l.01.014.01.014a4.877 4.877 0 0 1-.385-.578l-.013-.025-.013-.026a1.117 1.117 0 0 1-.149-.535v-.003c0-.22.085-.421.224-.571l-.001.001c.123-.148.283-.261.467-.324l.007-.002a1.1 1.1 0 0 1 .65.004l-.008-.002-.008-.002c.28.093.522.234.728.414l-.002-.002c.176.146.331.315.463.503.122.174.213.367.269.571l-.326.171a2.002 2.002 0 0 0-.261-.551l.005.007.005.007a2.093 2.093 0 0 0-.375-.388l-.004-.003-.004-.003a1.253 1.253 0 0 0-.725-.347l-.006-.001-.006-.001a.613.613 0 0 0-.535.232l-.001.001-.001.001a.489.489 0 0 0-.131.393v-.004c.015.152.064.29.139.41l-.002-.004c.08.131.194.303.349.509.153.194.291.401.411.617.091.154.148.338.154.535v.005c0 .22-.085.42-.223.569v-.001c-.122.148-.282.26-.466.322l-.007.002-.007.002a1.103 1.103 0 0 1-.65-.004l.008.002.008.002a2.133 2.133 0 0 1-.737-.416l.003.002.003.002a2.633 2.633 0 0 1-.558-.682l-.007-.013-.007-.013zm5.748.834-.806-1.143.297-.211 1.857 2.651-.297.211-.806-1.143-2.983 2.086-.24-.349 2.977-2.103zm-1.28 4.697c.108-.356.305-.657.567-.888l.002-.002.002-.002c.256-.23.573-.396.924-.472l.013-.002a2.092 2.092 0 0 1 1.104.048l-.015-.004-.015-.004c.348.117.642.314.873.57l.002.002c.238.272.409.609.483.981l.002.014a2.186 2.186 0 0 1-.008 1.134l.004-.015.004-.015a1.979 1.979 0 0 1-.567.888l-.002.002-.002.002a2.1 2.1 0 0 1-2.07.436l.015.004.015.004a1.916 1.916 0 0 1-.87-.567l-.002-.002-.002-.002a2.129 2.129 0 0 1-.481-.961l-.002-.014-.002-.014a2.21 2.21 0 0 1 .036-1.152l-.004.016-.004.016zM36 14.611c.29.328.712.533 1.181.533h.027-.001c.446 0 .854-.165 1.166-.438l-.002.002c.211-.194.367-.44.451-.714a1.826 1.826 0 0 0-.376-1.685l.002.002.002.003a1.631 1.631 0 0 0-.714-.457l-.012-.003-.012-.003a1.681 1.681 0 0 0-.904.006l.012-.003.012-.003c-.303.06-.568.199-.778.395l.001-.001c-.205.188-.36.427-.445.698l-.003.011-.003.011a1.679 1.679 0 0 0 .006.91l-.003-.012-.003-.012c.067.296.205.553.395.761l-.001-.001zm-1.183 4.818 1.48-.571c0-.103.034-.206.063-.314l.28-1.034-1.211-.314.109-.406 3.863 1.034-.389 1.446c-.092.435-.33.803-.659 1.06l-.004.003a1.214 1.214 0 0 1-1.103.155l.009.003.009.003a1.244 1.244 0 0 1-.977-1.205l-1.577.571.109-.429zm1.914.16a1.03 1.03 0 0 0 1.443.377l-.004.003-.004.003c.246-.199.421-.478.484-.797l.001-.009.274-1.029-1.937-.52-.274 1.029a1.361 1.361 0 0 0 .023.961l-.003-.009-.003-.009zm-3.965 3.52-.291-.223 1.714-2.257 3.189 2.417-1.657 2.189-.291-.223 1.4-1.846-1.143-.863-1.251 1.651-.286-.217 1.28-1.651-1.183-.897-1.48 1.92zm-1.337 4.554-.817.046v-.274l.817-.006-.44-.68.223-.143.434.686.354-.766.246.131-.389.72.817-.046v.28h-.829l.44.68-.223.143-.434-.686-.377.743-.24-.137.417-.691zM24 27.206l.691.383a1.79 1.79 0 0 1 1.119-.897l.012-.003.012-.003a1.75 1.75 0 0 1 .718-.074l-.008-.001-.007-.001c.216.017.411.092.575.208l-.003-.002c.15.113.263.269.318.451l.002.006c.069.226.057.469-.034.686-.151.307-.342.57-.571.794.189.101.363.226.52.371.105.108.186.24.232.387l.002.007a.754.754 0 0 1-.151.671l.001-.001.001-.001c-.15.214-.369.37-.624.436l-.008.002-.008.002a.984.984 0 0 1-.716-.003l.007.002a.721.721 0 0 1-.409-.476l-.001-.005-.001-.005a.781.781 0 0 1 .044-.58l-.002.005-.002.005c.131-.26.303-.497.509-.703l-1.377-.766a2.551 2.551 0 0 0-.051.519c0 .109.007.217.019.323l-.001-.013-.001-.012h-.349a2.757 2.757 0 0 1 .124-1.032l-.005.02-.005.019-.72-.4.149-.32zm.994.571 1.514.84c.198-.19.363-.411.486-.657a.708.708 0 0 0-.002-.519l.002.005a.621.621 0 0 0-.392-.426l-.004-.001-.004-.001a1.124 1.124 0 0 0-.748.006l.008-.002.008-.002a1.382 1.382 0 0 0-.884.727l-.004.008-.004.008.023.017zm2.149 2.286a.5.5 0 0 0 .044-.431l.001.004.001.004a.703.703 0 0 0-.183-.297 2.53 2.53 0 0 0-.446-.302l-.014-.006-.014-.006a3.027 3.027 0 0 0-.437.546l-.007.013-.007.013a.555.555 0 0 0-.044.43l-.001-.004-.001-.004a.486.486 0 0 0 .246.301l.003.001.003.001a.627.627 0 0 0 .456-.002l-.004.001a.687.687 0 0 0 .38-.264l.001-.002.001-.002.023.006zm-10.109 1.548.08-4h.406l-.063 3.2 1.623-2.663h.2l1.52 2.709.057-3.183h.406l-.074 4h-.349l-1.68-2.989-1.777 2.931-.349-.006zm-1.988-4.182a1.939 1.939 0 0 1 .512 2.005l.004-.014.004-.014c-.1.367-.289.682-.543.931-.243.24-.55.415-.894.497l-.013.003-.013.003a2.187 2.187 0 0 1-1.14-.043l.015.004.016.004a2.154 2.154 0 0 1-.962-.522l.001.001.001.001a1.922 1.922 0 0 1-.525-.876l-.003-.013-.003-.013a2.093 2.093 0 0 1 .572-2.01c.242-.242.548-.421.889-.511l.014-.003a2.156 2.156 0 0 1 1.133.043l-.015-.004-.016-.004c.378.098.704.285.966.538l-.001-.001zm-1.949-.2a1.523 1.523 0 0 0-.737.411 1.654 1.654 0 0 0-.429.736l-.003.012-.003.012c-.08.286-.08.589 0 .874.067.278.212.531.417.731.209.204.469.357.759.437l.012.003a1.767 1.767 0 0 0 .91-.005l-.013.003-.012.003c.291-.073.542-.217.743-.411.201-.202.351-.454.429-.736l.003-.012.003-.012a1.645 1.645 0 0 0-.006-.904l.006.024a1.613 1.613 0 0 0-.423-.731 1.711 1.711 0 0 0-.753-.429l-.012-.003-.012-.003a1.645 1.645 0 0 0-.904.006l.024-.006zm-4.326-2.658.154 1.571c.098.042.193.09.286.143l.931.537.629-1.109.371.211-2 3.446-1.303-.749a1.838 1.838 0 0 1-.848-.891l-.005-.012-.005-.012a1.252 1.252 0 0 1 .131-1.096l-.003.005-.003.005c.133-.25.343-.451.6-.571a1.273 1.273 0 0 1 .841-.059l-.009-.002-.009-.002-.166-1.68.406.263zm-.651 1.806a1.035 1.035 0 0 0-.77.866l-.001.005v.005a1.048 1.048 0 0 0 .038.424l-.002-.007-.002-.007c.134.296.366.536.657.68l.92.531 1-1.714-.92-.531a1.392 1.392 0 0 0-.926-.28h.008v.029zm-2.731-4.486.257-.257 1.971 2.029-2.857 2.789-1.903-1.966.263-.257 1.617 1.663.977-.989-1.417-1.474.274-.263 1.446 1.486 1.063-1.034-1.691-1.726zm-4.246-2.245.137-.789.269.04-.154.811.76-.28.091.251-.771.263.634.537-.183.206-.611-.571-.143.811-.274-.051.16-.811-.766.274-.086-.223.766-.269-.634-.531.189-.206.617.537z"/>
    </symbol>
    <symbol id="icon-mail" viewBox="0 0 32 32">
      <path fill="none" stroke-linejoin="round" stroke-linecap="round" stroke-width="1.333" d="M6.4 6.667h19.2C26.92 6.667 28 7.716 28 9v14c0 1.283-1.08 2.333-2.4 2.333H6.4C5.08 25.333 4 24.282 4 23V9c0-1.284 1.08-2.333 2.4-2.333z"/>
      <path fill="none" stroke-linejoin="round" stroke-linecap="round" stroke-width="1.333" d="m26.667 9.333-10.667 8-10.667-8"/>
    </symbol>
    <symbol id="icon-map-pin" viewBox="0 0 32 32">
      <path fill="none" stroke-linejoin="round" stroke-linecap="round" stroke-width="1.333" d="M26.667 13.819C26.667 21.454 16 28 16 28S5.333 21.453 5.333 13.819C5.333 8.396 10.109 4 16 4s10.667 4.396 10.667 9.819v0z"/>
      <path fill="none" stroke-linejoin="round" stroke-linecap="round" stroke-width="1.333" d="M16 18.667a4 4 0 0 0 0-8v0a4 4 0 0 0 0 8v0z"/>
    </symbol>
    <symbol id="icon-phone" viewBox="0 0 32 32">
      <path fill="none" stroke-linejoin="round" stroke-linecap="round" stroke-width="1.333" d="M26.667 21.337v3.226s0 0 0 0a2.147 2.147 0 0 1-2.356 2.137l.009.001.008.001c-3.481-.388-6.626-1.563-9.338-3.343l.081.05a21.28 21.28 0 0 1-6.336-6.272l-.05-.081-.05-.083a20.725 20.725 0 0 1-3.276-9.11l-.009-.095-.008-.095a2.145 2.145 0 0 1 2.136-2.338h3.239c1.079 0 1.972.797 2.123 1.834l.001.012c.136 1.029.387 2.04.751 3.013a2.139 2.139 0 0 1-.484 2.264h0l-1.363 1.361c1.555 2.7 3.736 4.881 6.353 6.392l.083.044 1.363-1.361a2.132 2.132 0 0 1 2.292-.472l-.015-.005-.015-.005c.973.363 1.984.613 3.013.751a2.152 2.152 0 0 1 1.847 2.125v0l-.001.056v-.003z"/>
    </symbol>
    <symbol id="icon-twitter" viewBox="0 0 32 32">
      <path d="M32 6.078c-1.1.493-2.376.857-3.713 1.028l-.068.007a6.587 6.587 0 0 0 2.859-3.533l.014-.046.013-.046a12.656 12.656 0 0 1-3.993 1.559l-.083.014-.084.014A6.558 6.558 0 0 0 15.6 9.557v.004c0 .52.043 1.021.152 1.496-5.454-.266-10.28-2.88-13.522-6.861a6.45 6.45 0 0 0-.902 3.31v.004a6.565 6.565 0 0 0 2.891 5.436l.023.015a6.422 6.422 0 0 1-3.026-.84l.032.017.033.017v.072a6.595 6.595 0 0 0 5.169 6.432l.087.016a6.235 6.235 0 0 1-1.645.215h-.075c-.419 0-.843-.024-1.242-.112.85 2.598 3.261 4.509 6.13 4.57a13.012 13.012 0 0 1-8.092 2.8h-.104c-.531 0-1.055-.034-1.569-.099l.061.006c2.826 1.846 6.287 2.944 10.004 2.944h.06c12.072 0 18.672-10 18.672-18.669 0-.288-.01-.57-.024-.848a13.327 13.327 0 0 0 3.229-3.309l.029-.046.03-.047z"/>
    </symbol>
  </defs>
</svg>
